HIERARCHY
ROOT Hips
{
	OFFSET 0.0000 0.0000 0.0000
	CHANNELS 6 Xposition Yposition Zposition Zrotation Xrotation Yrotation
	JOINT LeftFoot
	{
		OFFSET 2.5327 -6.9585 0.0000
		CHANNELS 3 Zrotation Xrotation Yrotation
	}
	JOINT RightFoot
	{
		OFFSET -2.4384 -6.6995 0.0000
		CHANNELS 3 Zrotation Xrotation Yrotation
	}
}
MOTION
Frames: 101
Frame Time: 0.008333
8.8721 15.7511 -31.7081 0.0000 0.0000 3.0000 0.0000 0.0000 0.0000 0.0000 0.0000 0.0000 
8.8721 15.7511 -31.7081 0.0000 0.0000 3.0001 -0.0990 -1.5271 -6.7045 -0.0436 -3.7106 1.5354 
8.8482 15.7496 -31.4727 0.0000 0.0000 3.0003 -0.0662 0.5881 -4.6771 -0.0174 -2.3527 1.0964 
8.8317 15.7527 -31.2268 0.0000 0.0000 3.0004 -0.0060 2.7583 -2.2738 -0.0045 -1.4888 1.4924 
8.8141 15.7664 -30.9831 0.0000 0.0000 3.0006 0.0747 5.0685 0.2820 -0.0013 -1.3777 1.8022 
8.7964 15.7773 -30.7435 0.0000 0.0000 3.0013 0.0653 4.6519 0.5991 0.0001 -1.4411 2.0711 
8.7841 15.7942 -30.5090 0.0000 0.0000 3.0021 0.0625 4.4649 1.1047 0.0064 -1.3763 2.6087 
8.7695 15.8202 -30.2798 0.0000 0.0000 3.0028 0.0811 5.0545 1.8903 0.0085 -1.7085 3.1408 
8.7494 15.8511 -30.0481 0.0000 0.0000 3.0036 0.1110 6.0695 3.6525 -0.0059 -2.6108 3.3167 
8.7309 15.8831 -29.8182 0.0000 0.0000 3.0073 0.1589 7.4804 5.2861 -0.0289 -3.5848 3.3658 
8.7118 15.9114 -29.5996 0.0000 0.0000 3.0111 0.2192 8.7982 6.2460 -0.0465 -4.2907 3.6264 
8.6893 15.9406 -29.3879 0.0000 0.0000 3.0148 0.2730 9.9917 7.5528 -0.0657 -4.9882 3.9921 
8.6725 15.9810 -29.1793 0.0000 0.0000 3.0186 0.3070 10.9207 8.9800 -0.0806 -5.5457 4.4754 
8.6622 16.0204 -28.9734 0.0000 0.0000 3.0374 0.2171 10.2115 10.0670 -0.0836 -5.8248 5.0496 
8.6519 16.0575 -28.7695 0.0000 0.0000 3.0563 -0.0207 7.4430 11.0650 -0.0893 -6.0928 5.4019 
8.6435 16.1065 -28.5706 0.0000 0.0000 3.0753 -0.2152 4.6594 11.7178 -0.0993 -6.4022 5.6390 
8.6383 16.1540 -28.3745 0.0000 0.0000 3.0944 -0.3448 2.2020 12.0588 -0.0896 -6.4134 6.1516 
8.6328 16.1993 -28.1802 0.0000 0.0000 3.1914 -0.4423 0.1049 12.4894 -0.0659 -6.2630 6.8482 
8.6246 16.2520 -27.9900 0.0000 0.0000 3.2911 -0.5140 -1.5753 12.9341 -0.0606 -6.4025 7.3070 
8.6167 16.2994 -27.8002 0.0000 0.0000 3.3935 -0.5503 -2.6468 13.1745 -0.0582 -6.5482 7.6514 
8.6132 16.3288 -27.6133 0.0000 0.0000 3.4985 -0.5964 -3.2721 13.6318 -0.0570 -6.7835 8.0989 
8.6100 16.3514 -27.4259 0.0000 0.0000 3.9093 -0.6682 -3.6307 14.3898 -0.0653 -7.1997 8.5643 
8.6073 16.3829 -27.2345 0.0000 0.0000 4.3598 -0.6580 -4.8196 14.2000 -0.0723 -7.5060 8.8889 
8.6044 16.4177 -27.0455 0.0000 0.0000 4.8522 -2.0601 -3.9313 24.9651 -0.1029 -8.0203 8.9211 
8.5965 16.4424 -26.8630 0.0000 0.0000 5.3881 -0.5637 -7.5582 13.3834 -0.1392 -8.4403 8.6285 
8.5877 16.4557 -26.6831 0.0000 0.0000 6.2481 -0.4845 -8.4724 12.7191 -0.1571 -8.5621 8.2952 
8.5851 16.4662 -26.4948 0.0000 0.0000 7.2033 -0.3766 -9.2500 11.7417 -0.1750 -8.8340 8.2907 
8.5920 16.4705 -26.3020 0.0000 0.0000 8.2475 -1.7199 -8.9516 22.4526 -0.1815 -9.0939 8.6670 
8.5997 16.4674 -26.1191 0.0000 0.0000 9.3657 -3.1476 -7.7021 29.7838 -0.1784 -9.2575 9.1318 
8.6017 16.4664 -25.9414 0.0000 0.0000 10.8509 -3.7481 -8.3989 32.1482 -0.1926 -9.5890 9.4196 
8.6046 16.4628 -25.7567 0.0000 0.0000 12.3260 -3.3890 -10.9831 30.5324 -0.2070 -9.9636 9.8136 
8.6127 16.4484 -25.5699 0.0000 0.0000 13.6722 -2.3100 -14.1763 25.9691 -0.2140 -10.3616 10.4721 
8.6185 16.4305 -25.3930 0.0000 0.0000 14.7542 -1.0494 -16.5241 19.6861 -0.2378 -10.8486 10.8782 
8.6167 16.4124 -25.2239 0.0000 0.0000 15.4701 -0.1569 -17.2153 13.5169 -0.2711 -11.1816 10.7328 
8.6191 16.3909 -25.0485 0.0000 0.0000 15.6094 0.2285 -16.6915 9.3170 -0.2994 -11.4922 10.6801 
8.6270 16.3826 -24.8641 0.0000 0.0000 15.1544 0.3334 -16.2786 7.6367 -0.3201 -11.8769 11.0254 
8.6314 16.3819 -24.6825 0.0000 0.0000 14.1606 0.3462 -16.2511 7.4389 -0.3302 -12.1438 11.3869 
8.6364 16.3663 -24.5030 0.0000 0.0000 13.3277 0.3618 -16.2172 7.1916 -0.3153 -12.0650 11.5830 
8.6438 16.3489 -24.3186 0.0000 0.0000 12.3595 0.4197 -16.5180 6.7176 -0.2927 -11.8483 11.6579 
8.6508 16.3362 -24.1298 0.0000 0.0000 11.2802 0.4506 -16.7573 6.5544 -0.2591 -11.5546 11.8344 
8.6569 16.3336 -23.9391 0.0000 0.0000 10.1113 0.4107 -16.3537 6.6576 -0.2000 -10.9802 12.0413 
8.6599 16.3461 -23.7504 0.0000 0.0000 8.8721 0.3590 -15.6962 6.6669 -0.1624 -10.6182 12.1896 
8.6682 16.3488 -23.5644 0.0000 0.0000 7.5780 0.3778 -15.4857 6.1499 -0.1198 -10.3242 12.5630 
8.6826 16.3383 -23.3748 0.0000 0.0000 6.2413 0.4064 -15.3826 5.5785 -0.0313 -9.6531 13.1994 
8.6936 16.3294 -23.1823 0.0000 0.0000 4.8725 0.3643 -14.5828 5.2962 0.0653 -8.9692 13.9208 
8.7038 16.3221 -22.9926 0.0000 0.0000 3.0712 0.3106 -13.4866 4.9073 0.1378 -8.3875 14.3523 
8.7153 16.3127 -22.8037 0.0000 0.0000 1.2458 0.2851 -12.7271 4.4571 0.1970 -7.6728 14.4353 
8.7245 16.3001 -22.6142 0.0000 0.0000 -0.5912 0.2712 -12.3397 4.2546 0.2742 -6.8265 14.6807 
8.7350 16.2923 -22.4200 0.0000 0.0000 -2.4307 0.3009 -12.7037 4.1095 0.3759 -5.7540 15.0916 
8.7496 16.2872 -22.2175 0.0000 0.0000 -4.2898 0.3279 -13.0961 4.0752 0.4412 -4.7517 15.1366 
8.7641 16.2768 -22.0127 0.0000 0.0000 -6.1331 0.3020 -13.1970 4.7131 0.4410 -4.1877 14.7186 
8.7766 16.2657 -21.8096 0.0000 0.0000 -7.9507 0.2714 -13.6510 5.7814 0.4426 -3.4668 14.2423 
8.7867 16.2505 -21.6066 0.0000 0.0000 -9.7374 0.2769 -13.2156 5.1968 0.4478 -2.5595 13.7464 
8.7946 16.2461 -21.4024 0.0000 0.0000 -11.5743 0.3355 -13.3270 4.2299 0.4419 -1.2716 12.9812 
8.8048 16.2369 -21.1929 0.0000 0.0000 -13.3606 0.3747 -13.5163 3.6910 0.3923 1.1196 11.3904 
8.8187 16.2277 -20.9795 0.0000 0.0000 -15.0847 0.3852 -13.6648 3.6854 0.3849 1.4672 11.1964 
8.8340 16.2101 -20.7627 0.0000 0.0000 -16.7437 0.3931 -13.8734 3.8258 0.3809 1.6827 11.0924 
8.8459 16.1913 -20.5419 0.0000 0.0000 -18.3371 0.4216 -14.0838 3.5459 0.3734 2.0516 10.9126 
8.8550 16.1764 -20.3196 0.0000 0.0000 -19.8512 0.4206 -13.8726 3.2422 0.3562 2.5180 10.5892 
8.8668 16.1599 -20.0940 0.0000 0.0000 -21.2741 0.3615 -13.2244 3.5480 0.3280 3.0839 10.1087 
8.8828 16.1467 -19.8674 0.0000 0.0000 -22.6053 0.2326 -11.0551 3.4530 0.2888 3.9589 9.4872 
8.8998 16.1470 -19.6389 0.0000 0.0000 -23.8495 0.0605 -8.0422 4.2710 0.2399 4.8910 8.7861 
8.9122 16.1604 -19.4084 0.0000 0.0000 -24.9909 -0.0678 -5.3917 5.5870 0.1839 5.6917 8.0077 
8.9213 16.1716 -19.1812 0.0000 0.0000 -26.0181 -0.1288 -3.2596 6.4079 0.1238 6.5597 7.2300 
8.9314 16.1796 -18.9535 0.0000 0.0000 -26.9331 -0.1398 -1.7329 6.6469 0.0257 7.8847 6.0502 
8.9392 16.1934 -18.7272 0.0000 0.0000 -27.7427 -0.1331 -0.8061 6.6302 -0.1268 9.5210 4.1349 
8.9455 16.2092 -18.5051 0.0000 0.0000 -28.4332 -0.1003 0.0213 5.9764 -0.3010 11.2018 1.8376 
8.9555 16.2268 -18.2818 0.0000 0.0000 -28.9946 -0.0500 0.5887 4.4780 -0.3004 10.9109 1.3024 
8.9681 16.2406 -18.0583 0.0000 0.0000 -29.4312 -0.0106 0.9632 2.5508 -0.3131 10.7938 0.5779 
8.9833 16.2529 -17.8387 0.0000 0.0000 -29.7530 0.0023 1.0769 1.1018 -0.4199 12.0196 -0.6881 
9.0015 16.2755 -17.6212 0.0000 0.0000 -29.9476 0.0019 0.7837 0.3964 -0.5337 13.2272 -2.1542 
9.0208 16.2997 -17.4056 0.0000 0.0000 -30.0068 0.0003 0.3701 -0.0561 -0.6175 14.0916 -3.2693 
9.0468 16.3307 -17.1931 0.0000 0.0000 -29.9371 -0.0018 -0.1414 -0.8769 -0.7026 14.9697 -4.2329 
9.0787 16.3699 -16.9843 0.0000 0.0000 -29.7507 -0.0056 -0.6487 -1.8054 -0.8655 16.6153 -4.9054 
9.1065 16.3983 -16.7797 0.0000 0.0000 -29.4375 -0.0015 -1.2409 -1.9579 -1.0401 18.2392 -5.2383 
9.1287 16.4300 -16.5812 0.0000 0.0000 -28.9919 0.0079 -1.8858 -1.7854 -1.0986 18.7131 -6.5167 
9.1480 16.4827 -16.3892 0.0000 0.0000 -28.4219 0.0108 -2.0929 -1.8226 -1.1016 18.8333 -8.7335 
9.1675 16.5315 -16.2030 0.0000 0.0000 -27.7339 0.0102 -2.1369 -2.0140 -1.0245 18.4514 -10.6225 
9.1886 16.5718 -16.0169 0.0000 0.0000 -26.9255 0.0134 -2.4217 -2.2503 -0.7561 16.7621 -12.8467 
9.2096 16.6179 -15.8250 0.0000 0.0000 -25.9939 0.0186 -2.7206 -2.3158 -0.2960 13.9629 -15.7560 
9.2284 16.6626 -15.6355 0.0000 0.0000 -24.9484 0.0216 -2.9464 -2.5367 0.1462 11.0245 -17.7044 
9.2466 16.7086 -15.4517 0.0000 0.0000 -23.8084 0.0247 -3.2775 -3.0271 0.4413 8.6287 -18.5367 
9.2645 16.7552 -15.2703 0.0000 0.0000 -22.5661 0.0259 -3.4657 -3.3473 0.6167 6.9509 -18.8988 
9.2820 16.7995 -15.0907 0.0000 0.0000 -21.2219 0.0276 -3.6121 -3.5325 0.7077 5.7433 -18.8778 
9.2991 16.8476 -14.9124 0.0000 0.0000 -19.7856 0.0463 -4.2484 -3.5258 0.7684 4.2803 -18.4742 
9.3142 16.8833 -14.7343 0.0000 0.0000 -18.2731 0.0713 -4.9685 -3.3928 0.8145 2.8927 -18.1031 
9.3294 16.9043 -14.5583 0.0000 0.0000 -16.6827 0.0793 -5.2207 -3.5020 0.8853 1.6018 -18.1327 
9.3426 16.9291 -14.3863 0.0000 0.0000 -15.0177 0.0779 -5.1501 -3.3703 0.9427 0.3476 -18.1379 
9.3549 16.9528 -14.2071 0.0000 0.0000 -13.2877 0.0788 -5.0838 -2.9251 0.9320 -1.6275 -17.3970 
9.3721 16.9759 -14.0174 0.0000 0.0000 -11.5063 0.0881 -5.3055 -2.5939 0.9139 -3.3955 -16.8574 
9.3917 16.9964 -13.8237 0.0000 0.0000 -9.6763 0.1105 -5.9063 -2.3470 0.8619 -5.0720 -16.2017 
9.4098 17.0085 -13.6349 0.0000 0.0000 -7.8039 0.1409 -6.6698 -2.1657 0.7459 -6.6295 -15.1116 
9.4190 17.0173 -13.4606 0.0000 0.0000 -5.8976 0.1728 -7.4121 -1.9949 0.6004 -8.1428 -13.8578 
9.4201 17.0138 -13.2941 0.0000 0.0000 -3.9684 0.1967 -7.9205 -1.9921 0.4343 -9.6893 -12.5164 
9.4272 17.0010 -13.1222 0.0000 0.0000 -2.0229 0.2155 -8.2886 -2.1268 0.2559 -10.8132 -10.9640 
9.4385 16.9863 -12.9425 0.0000 0.0000 -0.0696 0.2483 -8.8986 -2.2806 0.1036 -11.5442 -9.4947 
9.4460 16.9688 -12.7656 0.0000 0.0000 1.8842 0.2803 -9.4417 -2.5747 -0.0022 -12.0419 -8.4174 
9.4513 16.9499 -12.5897 0.0000 0.0000 3.5572 0.3093 -9.8992 -3.0200 -0.0617 -12.2902 -7.7649 
9.4542 16.9274 -12.4111 0.0000 0.0000 5.2188 0.3737 -10.8791 -3.4562 -0.1283 -12.7734 -7.1835 
9.4581 16.9044 -12.2363 0.0000 0.0000 6.8630 0.4445 -11.8679 -3.8090 -0.2009 -13.2364 -6.4947 
9.4600 16.8796 -12.0610 0.0000 0.0000 8.4858 0.4974 -12.5514 -4.2815 -0.2737 -13.6259 -5.7151 
